Coordinates
version=1
nRows=10
nColumns=63
inDegrees=yes

Units are S.I. units (second, meters, Newtons, ...)
If the header above contains a line with 'inDegrees', this indicates whether rotational values are in degrees (yes) or radians (no).

endheader
time	pelvis_tilt	pelvis_list	pelvis_rotation	pelvis_tx	pelvis_ty	pelvis_tz	hip_flexion_r	hip_adduction_r	hip_rotation_r	knee_angle_r	knee_angle_r_beta	ankle_angle_r	subtalar_angle_r	mtp_angle_r	hip_flexion_l	hip_adduction_l	hip_rotation_l	knee_angle_l	knee_angle_l_beta	ankle_angle_l	subtalar_angle_l	mtp_angle_l	L5_S1_Flex_Ext	L5_S1_Lat_Bending	L5_S1_axial_rotation	L4_L5_Flex_Ext	L4_L5_Lat_Bending	L4_L5_axial_rotation	L3_L4_Flex_Ext	L3_L4_Lat_Bending	L3_L4_axial_rotation	L2_L3_Flex_Ext	L2_L3_Lat_Bending	L2_L3_axial_rotation	L1_L2_Flex_Ext	L1_L2_Lat_Bending	L1_L2_axial_rotation	L1_T12_Flex_Ext	L1_T12_Lat_Bending	L1_T12_axial_rotation	Abs_r3	Abs_r2	Abs_r1	Abs_t1	Abs_t2	neck_flexion	neck_bending	neck_rotation	arm_flex_r	arm_add_r	arm_rot_r	elbow_flex_r	pro_sup_r	wrist_flex_r	wrist_dev_r	arm_flex_l	arm_add_l	arm_rot_l	elbow_flex_l	pro_sup_l	wrist_flex_l	wrist_dev_l
      2.63333333	     -4.54723644	     14.49910220	     87.37743302	      0.20994160	      1.01741875	      0.48510867	    -19.69449415	     -4.65407105	    -11.03016552	     12.92521679	      0.22558759	     43.30967405	     18.04120806	      0.00000000	    -23.76982932	      4.22201724	      9.55946247	      0.45627980	      0.00796358	     34.69712090	    -15.47823391	      0.00000000	     -1.50673718	     -1.95452617	     -9.48361271	     -2.79816161	     -2.59951981	    -10.07633850	     -2.47541851	     -4.75223493	    -10.07633850	     -1.72204992	     -4.75223493	     -8.29816112	     -1.39915614	     -3.98566977	     -7.70543533	     -0.86094962	     -3.02756104	     -7.11270953	    -10.76247298	    -22.10999095	    -52.74500881	      0.00000000	      0.00000000	     -8.02474351	      6.21007661	     43.96608401	     99.86896126	     24.24080230	    182.72332060	      0.03546817	      0.46377113	    -69.93456208	    -24.66550939	    -25.14194895	     -9.90756134	    -27.15823693	     59.71367010	     88.55681009	     -9.58515141	      1.63839943
      2.65000000	     -5.37087017	     14.34405809	     88.09804304	      0.21061350	      1.01903354	      0.48822377	    -19.42686658	     -5.20213354	    -11.80988762	     12.97321660	      0.22642534	     43.08071702	     17.95379461	      0.00000000	    -23.32323334	      4.70432186	      9.87955520	      0.53309723	      0.00930430	     34.11766045	    -15.14143003	      0.00000000	     -1.50550010	     -2.06721115	     -9.46609514	     -2.79586424	     -2.74939084	    -10.05772609	     -2.47338612	     -5.02621720	    -10.05772609	     -1.72063607	     -5.02621720	     -8.28283325	     -1.39800740	     -4.21545699	     -7.69120230	     -0.86024276	     -3.20211008	     -7.09957135	    -10.75363670	    -23.38470602	    -52.64758133	      0.00000000	      0.00000000	     -8.89041904	      9.85910639	     43.64915057	     94.48465386	     24.35743886	    183.30992178	      0.03635625	      0.49512940	    -69.93000075	    -24.65048512	    -24.51466436	    -11.16189183	    -25.51749314	     55.67420044	     88.40754415	    -10.33721796	     -1.49484736
      2.66666667	     -6.05480539	     14.05616713	     88.66601375	      0.21149215	      1.01983713	      0.49064431	    -19.11029776	     -5.63715535	    -12.41935783	     12.91117335	      0.22534249	     42.82272899	     17.76101301	      0.00000000	    -22.83229867	      5.10462849	     10.04502042	      0.65458145	      0.01142460	     33.51402853	    -15.06325343	      0.00000000	     -1.50679797	     -2.13380794	     -9.33189939	     -2.79827450	     -2.83796456	     -9.91514310	     -2.47551838	     -5.18814063	     -9.91514310	     -1.72211940	     -5.18814063	     -8.16541196	     -1.39921259	     -4.35126116	     -7.58216825	     -0.86098436	     -3.30526850	     -6.99892454	    -10.76290720	    -24.13806220	    -51.90122483	      0.00000000	      0.00000000	     -9.18942228	     13.43300472	     43.10787922	     89.50733681	     24.07209917	    183.74315331	      0.03721979	      0.52035613	    -69.92432868	    -24.63353028	    -23.56920767	    -12.83431672	    -22.43485892	     51.64772548	     88.43955550	    -11.35575109	     -3.93665628
      2.68333333	     -6.67284183	     13.66071602	     89.25503040	      0.21231591	      1.02026118	      0.49250483	    -18.81302171	     -5.96939371	    -12.93730105	     12.65483521	      0.22086854	     42.48861452	     17.44877208	      0.00000000	    -22.26572294	      5.43817558	     10.14046210	      0.85239672	      0.01487713	     32.94589739	    -15.00263831	      0.00000000	     -1.50316022	     -2.17837587	     -9.18718746	     -2.79151885	     -2.89723991	     -9.76138667	     -2.46954193	     -5.29650309	     -9.76138667	     -1.71796182	     -5.29650309	     -8.03878902	     -1.39583458	     -4.44214407	     -7.46458981	     -0.85890575	     -3.37430422	     -6.89039059	    -10.73692317	    -24.64222352	    -51.09638047	      0.00000000	      0.00000000	     -8.96114930	     16.42042774	     42.26858248	     84.76325836	     23.56361154	    183.93097541	      0.03800272	      0.55079732	    -69.91809462	    -24.62778800	    -22.65608513	    -14.71662194	    -18.89433929	     48.11850450	     88.59710664	    -11.60244246	     -4.79801824
      2.70000000	     -7.03713680	     13.06380278	     89.75368953	      0.21257601	      1.02040826	      0.49389340	    -18.38899641	     -6.07277333	    -13.25905380	     12.21967329	      0.21327353	     42.01316697	     17.08842434	      0.00000000	    -21.46124613	      5.58845927	     10.07378663	      1.18593170	      0.02069841	     32.52837717	    -14.92281686	      0.00000000	     -1.49171134	     -2.17827178	     -9.05495497	     -2.77025712	     -2.89710147	     -9.62088965	     -2.45073255	     -5.29625001	     -9.62088965	     -1.70487689	     -5.29625001	     -7.92308559	     -1.38520315	     -4.44193181	     -7.35715091	     -0.85236386	     -3.37414299	     -6.79121622	    -10.65514490	    -24.64104603	    -50.36094303	      0.00000000	      0.00000000	     -8.11007658	     18.32263597	     41.10830732	     80.25364707	     22.81902736	    184.36254539	      0.03860191	      0.58614810	    -69.91190370	    -24.62972028	    -21.66422637	    -16.82048620	    -14.03088285	     44.72209582	     88.75070386	    -13.17610875	     -5.24638944
      2.71666667	     -7.27712953	     12.30171443	     90.15752117	      0.21251028	      1.02049147	      0.49477676	    -17.85127544	     -6.06958884	    -13.23746607	     11.60932973	      0.20262103	     41.45363352	     16.59169597	      0.00000000	    -20.45168957	      5.67685978	      9.75113299	      1.62957903	      0.02844152	     32.31003987	    -14.56729759	      0.00000000	     -1.46399441	     -2.15924842	     -8.91299576	     -2.71878402	     -2.87180039	     -9.47005800	     -2.40519641	     -5.24999660	     -9.47005800	     -1.67319921	     -5.24999660	     -7.79887129	     -1.35946521	     -4.40313937	     -7.24180906	     -0.83652640	     -3.34467580	     -6.68474682	    -10.45716566	    -24.42584993	    -49.57140853	      0.00000000	      0.00000000	     -7.13271404	     19.38961548	     39.42973242	     75.87648667	     21.69995733	    184.82387623	      0.03911972	      0.62903383	    -69.90619333	    -24.63478100	    -20.65243426	    -19.07262191	     -8.66223040	     41.83364474	     88.94528249	    -13.43168501	     -3.89401003
      2.73333333	     -7.34139392	     11.39067209	     90.48891418	      0.21213622	      1.02042380	      0.49504805	    -17.22920270	     -5.89741498	    -12.98165755	     10.79801648	      0.18846094	     40.86998425	     16.02809979	      0.00000000	    -19.27315864	      5.63304180	      9.24703774	      2.12105743	      0.03701944	     32.29968682	    -13.96323033	      0.00000000	     -1.42404437	     -2.11424305	     -8.75632789	     -2.64459279	     -2.81194325	     -9.30359839	     -2.33956249	     -5.14057054	     -9.30359839	     -1.62754031	     -5.14057054	     -7.66178691	     -1.32236760	     -4.31136442	     -7.11451641	     -0.81369895	     -3.27496248	     -6.56724592	    -10.17180651	    -23.91674018	    -48.70006884	      0.00000000	      0.00000000	     -6.06335943	     19.80360828	     37.33760855	     71.66818355	     20.18333741	    185.00699479	      0.03971603	      0.67867599	    -69.90096662	    -24.63537636	    -19.34275541	    -21.41332605	     -2.30560222	     39.07643383	     89.09456205	    -12.76984281	     -1.51777361
      2.75000000	     -7.32645967	     10.39902474	     90.75725231	      0.21162563	      1.02021375	      0.49446134	    -16.60154072	     -5.65422787	    -12.54796018	      9.80970059	      0.17121157	     40.27999994	     15.38616233	      0.00000000	    -18.04658236	      5.53732063	      8.66270130	      2.56652324	      0.04479428	     32.45912191	    -13.15013281	      0.00000000	     -1.36997998	     -2.05979905	     -8.56480991	     -2.54418982	     -2.73953273	     -9.10011053	     -2.25074011	     -5.00819540	     -9.10011053	     -1.56575012	     -5.00819540	     -7.49420867	     -1.27216341	     -4.20034222	     -6.95890805	     -0.78280656	     -3.19062872	     -6.42360743	     -9.78563001	    -23.30085879	    -47.63490326	      0.00000000	      0.00000000	     -5.12306563	     20.09064199	     34.69019265	     67.62616706	     18.26020206	    184.62465433	      0.04066183	      0.73085835	    -69.89623282	    -24.62750354	    -17.64328945	    -23.51503610	      4.81593520	     36.20221086	     89.17200683	    -11.59386730	      0.84183450
      2.76666667	     -7.24120307	      9.28417186	     90.87156160	      0.21122708	      1.01965204	      0.49275622	    -15.95355939	     -5.34599363	    -11.60023665	      8.61452007	      0.15035174	     39.60907442	     14.29651429	      0.00000000	    -16.74415295	      5.40600121	      7.60314961	      2.95761264	      0.05162008	     32.92298598	    -11.68722461	      0.00000000	     -1.28448307	     -1.99864021	     -8.31012220	     -2.38541351	     -2.65819148	     -8.82950484	     -2.11027724	     -4.85949381	     -8.82950484	     -1.46803570	     -4.85949381	     -7.27135693	     -1.19277098	     -4.07562712	     -6.75197429	     -0.73395363	     -3.09589369	     -6.23259165	     -9.17493414	    -22.60901780	    -46.21840666	      0.00000000	      0.00000000	     -4.47546104	     20.60579511	     31.42348609	     63.80471104	     15.98476578	    183.63972051	      0.04217196	      0.78458547	    -69.89120396	    -24.61115164	    -15.58904880	    -25.00266846	     12.76349940	     32.86730085	     89.12596062	    -11.65421742	      1.56748057
      2.78333333	     -7.23692637	      8.23095387	     91.05257636	      0.21070555	      1.01873327	      0.49042288	    -15.47914877	     -5.11773991	    -10.65125093	      7.36288786	      0.12850664	     38.96145459	     13.09652005	      0.00000000	    -15.56789472	      5.33953646	      6.73681241	      3.27382811	      0.05713908	     33.46496129	    -10.24202769	      0.00000000	     -1.20116680	     -1.94788971	     -8.06448982	     -2.23068687	     -2.59069331	     -8.56852043	     -1.97339694	     -4.73609903	     -8.56852043	     -1.37281354	     -4.73609903	     -7.05642859	     -1.11540349	     -3.97213669	     -6.55239798	     -0.68634671	     -3.01728116	     -6.04836736	     -8.57981434	    -22.03491795	    -44.85227303	      0.00000000	      0.00000000	     -3.80112526	     21.16030486	     28.06013824	     60.44854017	     13.76222123	    182.04972796	      0.04438771	      0.85088677	    -69.88522131	    -24.58964604	    -14.08879399	    -25.59636644	     18.30624168	     30.19010470	     89.03225792	    -11.52458643	      1.96239303
